<svg width="39" height="44" viewBox="0 0 39 44" fill="none" xmlns="http://www.w3.org/2000/svg">
<path d="M38.8571 4.73106C38.8434 3.60395 38.422 2.51844 37.6686 1.66881C36.9151 0.819182 35.8787 0.260883 34.7447 0.0938353L34.8482 0H4.02496L3.97719 0.109479C2.87135 0.305627 1.86955 0.874214 1.14378 1.71758C0.418008 2.56094 0.0135637 3.62644 0 4.73106V33.4537C0 33.4537 2.73092e-05 38.1925 5.29764 38.1925H29.5426L28.4926 34.2826L38.8333 43.2286L38.8571 4.73106ZM32.3982 25.0003C30.5289 27.6278 26.5756 28.4254 25.5097 28.1283C25.0487 27.6208 24.6386 27.0708 24.2847 26.4861C24.2847 26.4861 27.2358 25.2662 27.9835 23.9212C26.3927 24.7501 24.8972 26.1968 20.0848 26.3532H18.7962C13.9838 26.1968 12.5281 24.7501 10.9452 23.9212C11.685 25.2662 14.6758 26.4705 14.6758 26.4705C14.3279 27.0735 13.9174 27.6396 13.4509 28.1596C12.377 28.4176 8.43168 27.6278 6.55444 25.0316C6.07718 19.2527 9.23506 13.2 9.23506 13.2C9.63278 11.3233 15.6861 9.4152 16.2349 10.291C16.052 10.8306 13.2202 10.9479 10.5634 13.1453C13.0691 11.5813 16.9269 11.0887 18.8519 10.9635H19.4644H20.0928C21.9939 11.0887 25.8756 11.5422 28.3812 13.1453C25.7245 10.9479 22.9007 10.7993 22.7098 10.291C23.2586 9.4152 29.3119 11.3233 29.7096 13.2C29.7176 13.1688 32.8834 19.2214 32.3982 25.0003Z" fill="white"/>
<path d="M15.3874 17.9732C15.0738 17.9614 14.7614 18.0176 14.4712 18.1377C14.181 18.2579 13.9199 18.4394 13.7055 18.6699C13.4911 18.9004 13.3284 19.1745 13.2284 19.4737C13.1285 19.7729 13.0935 20.0902 13.126 20.4042C13.0947 20.7175 13.1305 21.034 13.231 21.3322C13.3316 21.6304 13.4945 21.9036 13.7087 22.1332C13.923 22.3628 14.1837 22.5435 14.4733 22.6633C14.7629 22.783 15.0746 22.8389 15.3874 22.8273C16.8096 22.8273 17.4857 21.0295 17.4857 20.4042C17.4857 19.5991 16.8096 17.9732 15.3874 17.9732Z" fill="white"/>
<path d="M23.4776 17.9729C22.0555 17.9729 21.3716 19.6302 21.3716 20.4042C21.3716 21.0296 22.0555 22.8276 23.4776 22.8276C23.7899 22.8381 24.1007 22.7813 24.3893 22.661C24.6779 22.5408 24.9377 22.3598 25.1511 22.1303C25.3645 21.9008 25.5267 21.6281 25.6268 21.3304C25.7268 21.0327 25.7625 20.7169 25.7313 20.4042C25.7636 20.0909 25.7289 19.7742 25.6294 19.4755C25.5299 19.1769 25.3679 18.9031 25.1543 18.6728C24.9408 18.4424 24.6806 18.2607 24.3914 18.14C24.1022 18.0193 23.7906 17.9623 23.4776 17.9729Z" fill="white"/>
</svg>
