<svg width="43" height="41" viewBox="0 0 43 41" fill="none" xmlns="http://www.w3.org/2000/svg">
<path d="M21.8283 0.000175477C16.2361 0.000175477 10.873 2.20227 6.91869 6.12203C2.96442 10.0418 0.74292 15.3581 0.74292 20.9015C0.744129 25.2909 2.1378 29.5687 4.72671 33.1297C7.31562 36.6907 10.9687 39.3545 15.1689 40.7442C16.2212 40.931 16.606 40.2849 16.606 39.7322C16.606 39.1795 16.606 37.5914 16.606 35.8399C10.7398 37.1088 9.53832 33.38 9.53832 33.38C8.5724 30.9591 7.18241 30.3207 7.18241 30.3207C5.27413 29.0207 7.33162 29.0441 7.33162 29.0441C7.99973 29.1361 8.63779 29.3783 9.19715 29.752C9.7565 30.1257 10.2224 30.6211 10.5592 31.2004C12.4439 34.3998 15.4988 33.4735 16.7003 32.9363C16.7969 31.8773 17.2701 30.8869 18.0353 30.1417C13.3235 29.6124 8.43102 27.8063 8.43102 19.8117C8.40159 17.7332 9.18058 15.7234 10.6063 14.1991C9.95963 12.3985 10.0327 10.4209 10.8105 8.67209C10.8105 8.67209 12.5774 8.10382 16.606 10.8128C18.3259 10.348 20.1006 10.1124 21.8833 10.1122C23.6686 10.1115 25.446 10.3471 27.1683 10.8128C31.1969 8.10382 32.9639 8.67209 32.9639 8.67209C33.7417 10.4209 33.8147 12.3985 33.168 14.1991C34.5966 15.7216 35.376 17.7327 35.3433 19.8117C35.3433 27.8453 30.4038 29.6123 25.7077 30.1261C26.2154 30.6343 26.6067 31.2451 26.8547 31.9168C27.1027 32.5885 27.2016 33.3053 27.1448 34.0184C27.1448 36.8208 27.1448 39.0705 27.1448 39.7555C27.1448 40.316 27.5217 40.9699 28.5897 40.7597C32.7871 39.3699 36.4372 36.7067 39.0233 33.147C41.6095 29.5873 43.0007 25.3116 43 20.9249C43.0032 18.1709 42.4572 15.4434 41.3936 12.8993C40.3299 10.3551 38.7696 8.04439 36.8021 6.09992C34.8347 4.15545 32.499 2.61556 29.9293 1.56876C27.3596 0.521961 24.6065 -0.0111089 21.8283 0.000175477Z" fill="white"/>
<path d="M8.04271 29.7353C8.0035 29.8511 8.0427 30 8.19953 30.0745C8.35636 30.1489 8.46093 30.1158 8.50014 30.0083C8.53934 29.9007 8.50014 29.7435 8.34331 29.6691C8.18648 29.5946 8.08191 29.6277 8.04271 29.7353Z" fill="white"/>
<path d="M9.04752 30.6351C8.96727 30.7076 8.99193 30.8587 9.09687 30.9736C9.2018 31.0884 9.35615 31.1186 9.4364 31.0461C9.51664 30.9736 9.49811 30.8225 9.38701 30.7076C9.35056 30.6554 9.29509 30.6188 9.23197 30.6053C9.16885 30.5918 9.10287 30.6025 9.04752 30.6351Z" fill="white"/>
<path d="M9.63214 31.5937C9.53828 31.6367 9.48584 31.6944 9.48584 31.7543C9.48584 31.8143 9.53828 31.8719 9.63214 31.915C9.81287 32.0355 10.1179 32.0908 10.3099 32.0355C10.4045 31.9916 10.4573 31.9331 10.4573 31.8723C10.4573 31.8115 10.4045 31.7531 10.3099 31.7091C10.1179 31.5886 9.82417 31.5384 9.63214 31.5937Z" fill="white"/>
<path d="M10.536 32.6344C10.3911 32.7941 10.4491 33.1035 10.681 33.3231C10.7591 33.4241 10.8714 33.4906 10.9952 33.5091C11.119 33.5277 11.245 33.4969 11.3476 33.423C11.5022 33.2633 11.4249 32.9538 11.2027 32.7342C11.1246 32.6333 11.0122 32.5668 10.8884 32.5482C10.7646 32.5297 10.6387 32.5605 10.536 32.6344Z" fill="white"/>
<path d="M11.9234 33.7968C11.872 34.0561 12.0433 34.339 12.3003 34.4451C12.5572 34.5512 12.8142 34.4451 12.8742 34.1976C12.9341 33.95 12.7542 33.6554 12.4973 33.5493C12.2404 33.4432 11.9748 33.5964 11.9234 33.7968Z" fill="white"/>
<path d="M13.8572 34.249C13.8572 34.3826 14.0832 34.4857 14.3511 34.4857C14.6191 34.4857 14.8367 34.3704 14.8284 34.2369C14.82 34.1034 14.6107 33.9942 14.3428 34.0002C14.0749 34.0063 13.8572 34.1095 13.8572 34.249Z" fill="white"/>
<path d="M15.7407 33.5146C15.4787 33.5753 15.2842 33.8541 15.318 34.1208C15.3519 34.3876 15.597 34.533 15.8591 34.4724C16.1212 34.4118 16.3156 34.133 16.2818 33.8662C16.248 33.5995 16.0113 33.5146 15.7407 33.5146Z" fill="white"/>
</svg>
