<svg width="40" height="40" viewBox="0 0 40 40" fill="none" xmlns="http://www.w3.org/2000/svg">
<path d="M17.4349 22.5862C17.5995 22.2328 17.6422 21.8443 17.5576 21.4695C17.4731 21.0948 17.2651 20.7504 16.9598 20.4797C16.6535 20.2099 16.2638 20.0261 15.8397 19.9514C15.4155 19.8768 14.9759 19.9145 14.5759 20.06C14.1766 20.2065 13.8353 20.4544 13.5955 20.7723C13.3556 21.0902 13.2279 21.4638 13.2285 21.8459C13.228 22.1072 13.2837 22.3662 13.3926 22.6091C13.5079 22.8409 13.6688 23.0528 13.8677 23.235C14.0739 23.4107 14.3137 23.5529 14.5759 23.6548C14.8508 23.751 15.1439 23.8003 15.4397 23.7998C15.8703 23.7929 16.2891 23.6742 16.6439 23.4584C16.9987 23.2426 17.2738 22.9393 17.4349 22.5862Z" fill="white"/>
<path d="M24.8162 26.2527C24.6724 26.2502 24.5322 26.2977 24.4197 26.3872C24.1214 26.6067 23.8027 26.7974 23.468 26.9565C23.1347 27.1221 22.787 27.257 22.4291 27.3597C22.0738 27.4619 21.7103 27.5334 21.3427 27.5732C20.9744 27.6178 20.603 27.6311 20.2324 27.6128C19.8616 27.6287 19.4902 27.6128 19.1221 27.5653C18.7539 27.5207 18.3904 27.444 18.0356 27.336C17.6813 27.2271 17.3365 27.0896 17.0047 26.9248C16.6714 26.76 16.353 26.5669 16.053 26.3476C15.9497 26.2655 15.8201 26.2234 15.6882 26.229C15.5538 26.2362 15.4267 26.2925 15.3313 26.3872C15.2364 26.4823 15.1799 26.609 15.1727 26.743C15.1631 26.8751 15.2058 27.0057 15.2916 27.1067C15.643 27.3734 16.0172 27.6089 16.4099 27.8104C16.8047 28.0109 17.216 28.1775 17.6391 28.3086C18.0602 28.4435 18.4929 28.5388 18.9318 28.5932C19.368 28.6513 19.8086 28.6698 20.2482 28.6486C20.6905 28.6696 21.1338 28.6511 21.5727 28.5932C22.4493 28.4727 23.2993 28.2053 24.0866 27.8025C24.4793 27.601 24.8534 27.3655 25.2048 27.0988V27.17C25.2564 27.1208 25.2976 27.062 25.3262 26.9968C25.3548 26.9317 25.3702 26.8615 25.3714 26.7904C25.3714 26.6456 25.3145 26.5065 25.2128 26.403C25.1615 26.3509 25.0995 26.3105 25.031 26.2846C24.9626 26.2586 24.8893 26.2478 24.8162 26.2527Z" fill="white"/>
<path d="M25.4661 20.0572C25.0689 19.9143 24.6323 19.8774 24.2112 19.9511C23.7901 20.0248 23.4033 20.2058 23.0995 20.4713C22.7923 20.7367 22.5831 21.0766 22.4987 21.447C22.4143 21.8175 22.4587 22.2016 22.6262 22.5497C22.7908 22.8967 23.069 23.1934 23.4258 23.4024C23.7826 23.6114 24.202 23.7234 24.6314 23.7244V23.7997C24.9261 23.8012 25.2183 23.7526 25.4919 23.6567C25.7637 23.5547 26.0095 23.4062 26.2148 23.2199C26.423 23.0357 26.5843 22.815 26.6881 22.5723C26.7937 22.3325 26.8406 22.0759 26.8258 21.8193C26.825 21.4406 26.6952 21.0707 26.453 20.7568C26.2108 20.4429 25.8672 20.1994 25.4661 20.0572Z" fill="white"/>
<path d="M20.0325 0C14.7498 0 9.68353 2.07252 5.94814 5.76163C2.21275 9.45074 0.114258 14.4542 0.114258 19.6714C0.114258 24.8886 2.21275 29.8921 5.94814 33.5812C9.68353 37.2703 14.7498 39.3429 20.0325 39.3429C25.3138 39.3408 30.378 37.2674 34.1117 33.5785C37.8454 29.8896 39.9428 24.8873 39.9428 19.6714C39.9428 14.4556 37.8454 9.45326 34.1117 5.76437C30.378 2.07549 25.3138 0.0020616 20.0325 0ZM33.2116 20.4645C33.143 20.7379 33.0343 20.9998 32.8888 21.242C32.7448 21.4716 32.57 21.6808 32.3692 21.8641C32.1695 22.0457 31.9441 22.1976 31.7 22.315C31.7 22.385 31.7 22.4628 31.7 22.5327V22.9681C31.7 23.0381 31.7 23.1081 31.7 23.1858C31.7 27.5867 26.5039 31.1711 20.0876 31.1711C13.6713 31.1711 8.47519 27.5867 8.47519 23.1858C8.47519 23.1081 8.47519 23.0381 8.47519 22.9681C8.46732 22.8231 8.46732 22.6778 8.47519 22.5327C8.47519 22.4628 8.47519 22.385 8.47519 22.315C8.09331 22.1408 7.75455 21.8863 7.48258 21.5694C7.21062 21.2524 7.012 20.8807 6.90063 20.4801C6.7864 20.0796 6.76174 19.6594 6.82836 19.2485C6.89497 18.8377 7.05125 18.4461 7.28639 18.1008C7.52255 17.757 7.83134 17.4677 8.19149 17.253C8.55164 17.0382 8.95462 16.903 9.3727 16.8568C9.79384 16.8108 10.2201 16.8566 10.6213 16.9909C11.0226 17.1252 11.3891 17.3449 11.6951 17.6343C12.2644 17.2514 12.8618 16.9109 13.4823 16.6157C14.0995 16.3098 14.7389 16.0499 15.3954 15.8382C16.0524 15.6336 16.7233 15.4751 17.4029 15.3639C18.0829 15.2577 18.7695 15.1979 19.4578 15.1851L20.93 8.36619C20.9483 8.28628 20.9803 8.21004 21.0245 8.14071C21.072 8.07666 21.1307 8.02138 21.1976 7.97742C21.2669 7.93192 21.3445 7.90023 21.426 7.88412C21.5066 7.86861 21.5895 7.86861 21.67 7.88412L26.5512 8.84826C26.7881 8.44201 27.1646 8.1331 27.6124 7.9776C28.0602 7.8221 28.5496 7.83031 28.9918 8.00075C29.4408 8.16104 29.8166 8.47534 30.0507 8.88636C30.2848 9.29738 30.3616 9.77777 30.2672 10.24C30.1669 10.6978 29.9053 11.1054 29.5289 11.3902C29.1526 11.6751 28.6859 11.8186 28.2124 11.7951C27.7395 11.77 27.2912 11.5793 26.9478 11.2573C26.6044 10.9352 26.3885 10.5029 26.3386 10.0379L22.0794 9.1515L20.7804 15.294C21.4613 15.3056 22.1403 15.368 22.8116 15.4806C24.1561 15.699 25.461 16.1103 26.685 16.7013C27.2978 16.9939 27.8873 17.3318 28.4485 17.7121C28.8467 17.3138 29.3569 17.0429 29.9129 16.9345C30.4623 16.8258 31.032 16.8799 31.5504 17.09C32.0694 17.2988 32.5174 17.6494 32.8416 18.1008C33.164 18.5589 33.347 19.0984 33.369 19.6559C33.359 19.9305 33.3114 20.2025 33.2273 20.4645H33.2116Z" fill="white"/>
</svg>
