<svg width="42" height="41" viewBox="0 0 42 41" fill="none" xmlns="http://www.w3.org/2000/svg">
<path d="M20.8113 1.33951e-05C15.3447 0.00826279 10.1046 2.15904 6.24055 5.98052C2.37654 9.80199 0.204133 14.9821 0.199965 20.3844C0.196858 23.0624 0.727549 25.7147 1.76168 28.1899C2.79582 30.6652 4.31315 32.915 6.22708 34.8107C8.14102 36.7065 10.4141 38.2111 12.9165 39.2388C15.4188 40.2664 18.1015 40.7969 20.8113 40.8C23.5261 40.8041 26.2151 40.2789 28.7243 39.2546C31.2335 38.2303 33.5135 36.7269 35.434 34.8305C37.3544 32.9341 38.8774 30.682 39.9159 28.2031C40.9543 25.7243 41.4877 23.0673 41.4857 20.3844C41.4826 17.7044 40.9454 15.0513 39.9047 12.5765C38.864 10.1017 37.3403 7.85365 35.4205 5.96079C33.5007 4.06792 31.2224 2.56726 28.7158 1.54451C26.2091 0.52176 23.5232 -0.00305705 20.8113 1.33951e-05ZM30.0647 21.0699C29.7369 22.2954 29.1615 23.4427 28.3731 24.4427C27.5848 25.4427 26.5997 26.2746 25.4774 26.8884C20.4172 29.7237 13.0554 29.3109 9.36668 24.1622C11.7943 26.0316 15.3727 26.4444 18.0368 23.835C16.3028 23.835 15.8457 22.542 17.2486 21.8488C16.7441 21.894 16.2363 21.8103 15.7739 21.6057C15.3115 21.4011 14.9101 21.0825 14.6082 20.6804C14.4269 20.4 14.4269 20.3688 14.7265 20.1585C15.1019 19.9223 15.5348 19.7904 15.9797 19.7769C15.4262 19.6792 14.9079 19.4412 14.4755 19.0862C14.043 18.7312 13.7113 18.2714 13.5126 17.7516C13.4101 17.4401 13.3944 17.4634 13.7254 17.3856C14.077 17.302 14.436 17.2525 14.7974 17.2376C14.3353 17.0103 13.9289 16.6864 13.6063 16.2882C13.2837 15.89 13.0527 15.4272 12.9293 14.932C12.7796 14.153 12.9293 14.3322 13.552 14.5659C16.3186 15.6018 19.0694 16.7313 20.7088 18.3904C21.2181 16.5708 22.1491 14.8933 23.4281 13.4909C24.2163 12.712 24.6183 12.4238 24.1611 13.3118C24.3881 13.1316 24.6278 12.9676 24.8784 12.8211C26.1631 12.2291 26.0686 12.7276 25.1937 13.2651C27.5583 12.416 27.511 13.4909 24.973 14.044C26.1474 14.0625 27.279 14.4824 28.1756 15.2321C29.0722 15.9818 29.6784 17.0152 29.8913 18.1567C29.9859 18.5462 29.8913 18.5072 30.2696 18.5773C31.086 18.7412 31.9306 18.7038 32.7288 18.4683C32.65 19.0525 31.8855 19.4186 30.6795 19.6678C30.2381 19.7613 30.1436 19.7379 30.6795 19.8547C31.3918 20.0018 32.1211 20.0516 32.8471 20.0027C32.4901 20.3615 32.0606 20.642 31.5866 20.8258C31.1127 21.0097 30.6049 21.0928 30.0963 21.0699H30.0647Z" fill="white"/>
</svg>
