<svg width="144" height="34" viewBox="0 0 144 34" fill="none" xmlns="http://www.w3.org/2000/svg">
<g clip-path="url(#clip0_1041_323)">
<path d="M5.90028 8.19719C7.29401 8.19719 8.42385 7.10327 8.42385 5.75387C8.42385 4.40446 7.29401 3.31055 5.90028 3.31055C4.50655 3.31055 3.37671 4.40446 3.37671 5.75387C3.37671 7.10327 4.50655 8.19719 5.90028 8.19719Z" fill="#00FFA3"/>
<path d="M17.4944 29.0514C10.5919 29.0583 4.99026 23.6486 4.98315 16.9656C4.98263 13.8687 6.20603 10.889 8.40242 8.63763L26.0745 25.7477C23.7542 27.8679 20.6849 29.0497 17.4944 29.0514Z" fill="white"/>
<path d="M8.92139 8.13519C11.3309 5.9302 14.5464 4.74221 17.8605 4.83256C21.1746 4.92291 24.316 6.2842 26.5935 8.61697C28.7881 10.8638 30.0109 13.8388 30.0109 16.9311C30.0109 20.0235 28.7881 22.9985 26.5935 25.2453L8.92139 8.13519Z" fill="white"/>
<path d="M8.39532 8.63765L0 0.502428L0.518932 0L8.92136 8.13522C8.73654 8.29352 8.56593 8.46559 8.39532 8.63765Z" fill="white"/>
<path d="M26.5863 25.2385L34.9887 33.3737L34.4698 33.8761L26.0674 25.7409C26.2451 25.5826 26.4228 25.4105 26.5863 25.2385Z" fill="white"/>
<path d="M54.8148 8.08362C55.3196 8.08362 55.6252 8.44151 55.6252 8.79252C55.6252 9.14354 55.2769 9.50143 54.8646 9.49455H49.9454V24.6225C49.9454 24.9941 49.5687 25.3383 49.1635 25.3383C48.7156 25.3383 48.3744 24.9941 48.3744 24.6294V9.50143H43.4055C42.9932 9.50143 42.6306 9.1573 42.6306 8.79252C42.6306 8.42775 42.986 8.08362 43.4055 8.08362H54.8148Z" fill="white"/>
<path d="M75.6929 8.46558C75.7593 8.35462 75.8547 8.2625 75.9695 8.19848C76.0843 8.13446 76.2144 8.10077 76.3469 8.10081C76.3873 8.09967 76.4278 8.10197 76.4677 8.10769C76.944 8.14898 77.1786 8.49312 77.1786 8.82348C77.1809 8.94422 77.149 9.06326 77.0862 9.16761L71.9822 17.4749V24.6053C71.9822 25.0182 71.6481 25.3348 71.186 25.3348C70.724 25.3348 70.3899 25.0182 70.3899 24.6053V17.4749L65.2361 9.22267C65.1606 9.10243 65.1212 8.96419 65.1223 8.82348C65.1223 8.48623 65.3569 8.15587 65.8332 8.11457C65.8826 8.10658 65.9325 8.10198 65.9825 8.10081C66.1091 8.10206 66.2331 8.13586 66.3417 8.19874C66.4504 8.26163 66.5399 8.35134 66.6009 8.4587L71.1931 15.7611L75.6929 8.46558Z" fill="white"/>
<path d="M98.8529 8.08362C99.3576 8.08362 99.6633 8.44151 99.6633 8.79252C99.6633 9.14354 99.315 9.50143 98.9027 9.49455H93.9835V24.6225C93.9835 24.9941 93.6067 25.3383 93.2016 25.3383C92.7537 25.3383 92.4125 24.9941 92.4125 24.6294V9.50143H87.4435C87.0312 9.50143 86.6687 9.1573 86.6687 8.79252C86.6687 8.42775 87.0241 8.08362 87.4435 8.08362H98.8529Z" fill="white"/>
<path d="M111.449 9.55302C111.72 8.68582 112.565 8.08015 113.568 8.08015C114.035 8.07306 114.492 8.21277 114.87 8.47833C115.248 8.74388 115.527 9.12097 115.665 9.55302L120.314 24.4814C120.331 24.5373 120.34 24.5951 120.342 24.6534C120.342 24.9769 120.072 25.3004 119.603 25.3279C119.426 25.3394 119.251 25.2936 119.104 25.1976C118.957 25.1016 118.848 24.961 118.793 24.798L117.314 20.2348H109.814L108.357 24.7773C108.304 24.946 108.193 25.0925 108.044 25.1935C107.895 25.2945 107.714 25.3443 107.533 25.3348C107.07 25.3142 106.793 25.0113 106.793 24.6328C106.795 24.5559 106.807 24.4795 106.829 24.4057L111.449 9.55302ZM114.115 9.93845C114.023 9.64938 113.852 9.50485 113.582 9.50485C113.312 9.50485 113.134 9.6425 113.042 9.93845L110.248 18.8032H116.873L114.115 9.93845Z" fill="white"/>
<path d="M142.415 8.80974C142.415 8.40367 142.735 8.0733 143.211 8.0733C143.687 8.0733 144 8.39679 144 8.80974V23.4353C144 24.4952 143.147 25.328 142.01 25.328C141.629 25.3296 141.256 25.2262 140.933 25.03C140.611 24.8337 140.353 24.5528 140.19 24.2199L133.444 9.89031C133.316 9.62189 133.159 9.47736 132.932 9.50489C132.719 9.52553 132.605 9.68383 132.605 10.0211V24.6019C132.605 25.0148 132.271 25.3314 131.809 25.3314C131.347 25.3314 131.012 25.0148 131.012 24.6019V9.98322C131.012 8.9233 131.873 8.08363 133.017 8.08363C133.397 8.08351 133.768 8.18755 134.089 8.38368C134.41 8.57981 134.667 8.85999 134.83 9.19172L141.59 23.5144C141.718 23.7828 141.874 23.9342 142.095 23.8998C142.301 23.8723 142.415 23.7209 142.415 23.3836V8.80974Z" fill="white"/>
<path d="M5.92155 8.22468C7.31921 8.22468 8.45223 7.12769 8.45223 5.77448C8.45223 4.42127 7.31921 3.32428 5.92155 3.32428C4.52389 3.32428 3.39087 4.42127 3.39087 5.77448C3.39087 7.12769 4.52389 8.22468 5.92155 8.22468Z" fill="#00FFA3"/>
<path d="M17.5583 29.1615C15.9109 29.1636 14.2791 28.8515 12.7563 28.243C11.2334 27.6345 9.84928 26.7415 8.68287 25.6151C7.51646 24.4886 6.59065 23.1508 5.95828 21.6779C5.32591 20.205 4.99937 18.626 4.99732 17.0309C4.99379 13.9227 6.22284 10.9318 8.4308 8.67548L26.1669 25.8475C23.8416 27.9788 20.7603 29.165 17.5583 29.1615Z" fill="white"/>
<path d="M8.94971 8.16278C13.9826 3.55145 21.923 3.77169 26.6858 8.64456C28.8873 10.9003 30.1139 13.8862 30.1139 16.9897C30.1139 20.0932 28.8873 23.0791 26.6858 25.3348L8.94971 8.16278Z" fill="white"/>
<path d="M8.43086 8.66518L0 0.502428L0.518932 0L8.94979 8.16276C8.77208 8.32794 8.60147 8.49656 8.43086 8.66518Z" fill="white"/>
<path d="M26.693 25.3348L35.1239 33.4976L34.605 34L26.167 25.8442C26.3447 25.679 26.5224 25.5069 26.693 25.3348Z" fill="white"/>
</g>
<defs>
<clipPath id="clip0_1041_323">
<rect width="144" height="34" fill="white"/>
</clipPath>
</defs>
</svg>
