<svg width="132" height="119" viewBox="0 0 132 119" fill="none" xmlns="http://www.w3.org/2000/svg">
<path d="M114.19 89.2995H46.9936C46.6505 89.2993 46.3166 89.189 46.0409 88.9849C45.7652 88.7808 45.5624 88.4937 45.4623 88.1658L23.1369 14.6805C23.0863 14.5107 22.9824 14.3617 22.8405 14.2554C22.6986 14.149 22.5263 14.0911 22.349 14.09H1.59951C1.17528 14.09 0.768463 13.9216 0.468489 13.6219C0.168516 13.3222 0 12.9156 0 12.4917C0.000695848 12.0683 0.169489 11.6624 0.469387 11.3633C0.769285 11.0641 1.17573 10.896 1.59951 10.896H22.349C23.2144 10.892 24.058 11.1679 24.7534 11.6826C25.4489 12.1973 25.959 12.9231 26.2074 13.7515L48.186 86.0977H113.008L127.856 36.65C127.894 36.5256 127.903 36.394 127.88 36.2658C127.858 36.1376 127.806 36.0166 127.727 35.9125C127.651 35.8073 127.55 35.722 127.433 35.6636C127.317 35.6051 127.188 35.5753 127.058 35.5766H121.497C121.073 35.5766 120.666 35.4082 120.366 35.1084C120.066 34.8087 119.898 34.4022 119.898 33.9783C119.898 33.5548 120.067 33.149 120.367 32.8498C120.667 32.5506 121.074 32.3826 121.497 32.3826H127.058C127.686 32.3795 128.307 32.5248 128.869 32.8066C129.43 33.0884 129.918 33.4989 130.291 34.0045C130.669 34.5067 130.923 35.0911 131.032 35.71C131.141 36.3289 131.102 36.9649 130.919 37.5659L115.729 88.1553C115.631 88.4866 115.428 88.7773 115.151 88.9836C114.873 89.1899 114.536 89.3007 114.19 89.2995Z" fill="white"/>
<path d="M37.5566 35.5817H30.8643C30.6543 35.5817 30.4465 35.5403 30.2525 35.46C30.0586 35.3796 29.8825 35.2618 29.7342 35.1134C29.5858 34.9649 29.4682 34.7887 29.3881 34.5948C29.308 34.4009 29.267 34.1931 29.2673 33.9834C29.2673 33.5602 29.4356 33.1543 29.7351 32.8551C30.0345 32.5558 30.4407 32.3877 30.8643 32.3877H37.5566C37.9802 32.3877 38.3863 32.5558 38.6858 32.8551C38.9853 33.1543 39.1535 33.5602 39.1535 33.9834C39.1539 34.1931 39.1128 34.4009 39.0327 34.5948C38.9526 34.7887 38.8351 34.9649 38.6868 35.1134C38.5384 35.2618 38.3622 35.3796 38.1683 35.46C37.9744 35.5403 37.7666 35.5817 37.5566 35.5817Z" fill="white"/>
<path d="M51.0253 118.843C48.1078 118.837 45.3116 117.676 43.2486 115.615C41.1856 113.553 40.0238 110.759 40.0176 107.844C40.0245 104.929 41.1866 102.136 43.2495 100.075C45.3124 98.0144 48.1083 96.8539 51.0253 96.8477C53.942 96.8546 56.7371 98.0154 58.7994 100.076C60.8618 102.137 62.0235 104.93 62.0304 107.844C62.0242 110.759 60.8628 113.553 58.8004 115.614C56.7379 117.675 53.9424 118.836 51.0253 118.843ZM51.0253 100.042C48.955 100.044 46.97 100.866 45.5061 102.329C44.0421 103.792 43.2187 105.775 43.2167 107.844C43.218 109.913 44.0412 111.897 45.5053 113.36C46.9694 114.823 48.9548 115.645 51.0253 115.647C53.0957 115.645 55.0806 114.822 56.5446 113.359C58.0085 111.896 58.8319 109.913 58.834 107.844C58.8312 105.776 58.0076 103.793 56.5438 102.33C55.08 100.867 53.0955 100.044 51.0253 100.042Z" fill="white"/>
<path d="M108.814 118.843C105.897 118.836 103.102 117.675 101.039 115.614C98.9767 113.553 97.8153 110.759 97.8091 107.844C97.816 104.93 98.9777 102.137 101.04 100.076C103.102 98.0154 105.898 96.8546 108.814 96.8477C111.731 96.8539 114.527 98.0144 116.59 100.075C118.653 102.136 119.815 104.929 119.822 107.844C119.816 110.759 118.654 113.553 116.591 115.615C114.528 117.676 111.732 118.837 108.814 118.843ZM108.814 100.042C106.744 100.044 104.76 100.867 103.296 102.33C101.832 103.793 101.008 105.776 101.006 107.844C101.008 109.913 101.831 111.896 103.295 113.359C104.759 114.822 106.744 115.645 108.814 115.647C110.885 115.645 112.871 114.823 114.335 113.36C115.8 111.897 116.623 109.913 116.625 107.844C116.623 105.775 115.799 103.792 114.334 102.329C112.87 100.866 110.885 100.044 108.814 100.042Z" fill="white"/>
<path d="M90.6724 102.729H69.1691C68.7449 102.729 68.338 102.561 68.0381 102.261C67.7381 101.961 67.5696 101.555 67.5696 101.131C67.5696 100.707 67.7381 100.301 68.0381 100.001C68.338 99.7011 68.7449 99.5327 69.1691 99.5327H90.6724C91.0962 99.5334 91.5023 99.7021 91.8017 100.002C92.1012 100.301 92.2693 100.708 92.2693 101.131C92.2693 101.554 92.1012 101.961 91.8017 102.26C91.5023 102.56 91.0962 102.729 90.6724 102.729Z" fill="white"/>
<path d="M69.3217 89.2997C68.8979 89.299 68.4917 89.1303 68.1923 88.8307C67.8929 88.531 67.7247 88.1248 67.7247 87.7014V64.9472C67.724 64.7757 67.6554 64.6115 67.5338 64.4905C67.4123 64.3695 67.2476 64.3016 67.076 64.3016H57.2843C57.0949 64.3016 56.9131 64.3768 56.7792 64.5107C56.6452 64.6446 56.5699 64.8261 56.5699 65.0155V87.7014C56.5699 88.1253 56.4014 88.5318 56.1014 88.8316C55.8015 89.1313 55.3946 89.2997 54.9704 89.2997C54.5461 89.2997 54.1393 89.1313 53.8393 88.8316C53.5394 88.5318 53.3708 88.1253 53.3708 87.7014V65.0155C53.3715 63.9785 53.7841 62.9843 54.5178 62.2511C55.2516 61.5179 56.2466 61.1057 57.2843 61.105H67.076C68.0954 61.1064 69.0726 61.5116 69.7934 62.2319C70.5143 62.9521 70.9199 63.9286 70.9213 64.9472V87.7014C70.9213 88.1253 70.7527 88.5318 70.4527 88.8316C70.1527 89.1313 69.7459 89.2997 69.3217 89.2997Z" fill="white"/>
<path d="M105.202 89.3C104.778 89.3 104.371 89.1316 104.071 88.8318C103.771 88.5321 103.603 88.1256 103.603 87.7017V73.7736C103.603 73.5842 103.528 73.4027 103.394 73.2688C103.26 73.1349 103.078 73.0597 102.888 73.0597H69.3216C68.898 73.0597 68.4918 72.8916 68.1923 72.5923C67.8928 72.2931 67.7246 71.8872 67.7246 71.464C67.7246 71.0406 67.8928 70.6345 68.1922 70.3348C68.4916 70.0351 68.8978 69.8664 69.3216 69.8657H102.888C103.926 69.8664 104.92 70.2783 105.654 71.0109C106.388 71.7435 106.801 72.7371 106.802 73.7736V87.7017C106.802 88.1256 106.633 88.5321 106.333 88.8318C106.033 89.1316 105.627 89.3 105.202 89.3Z" fill="white"/>
<path d="M88.8182 16.36C88.5406 16.3589 88.2681 16.2858 88.0273 16.1478C87.7864 16.0098 87.5856 15.8116 87.4446 15.5727C87.2277 15.2088 87.164 14.7739 87.2674 14.3631C87.3708 13.9524 87.6328 13.5993 87.9962 13.3812C92.9289 10.4653 98.2 8.16316 103.692 6.52612C103.893 6.46551 104.104 6.44506 104.313 6.46594C104.522 6.48683 104.724 6.54863 104.909 6.64783C105.094 6.74704 105.258 6.8817 105.39 7.0441C105.523 7.20649 105.623 7.39344 105.683 7.59427C105.744 7.79502 105.765 8.00585 105.745 8.21468C105.724 8.42351 105.662 8.62625 105.563 8.81128C105.464 8.9963 105.33 9.16 105.167 9.29298C105.005 9.42597 104.818 9.52562 104.617 9.58625C99.3781 11.147 94.3503 13.3425 89.6456 16.1238C89.3964 16.2762 89.1104 16.3579 88.8182 16.36Z" fill="#00FFA3"/>
<path d="M49.9459 56.0845C49.676 56.085 49.4104 56.0173 49.1737 55.8877C48.9647 55.7725 48.784 55.6121 48.6449 55.4182C48.5059 55.2243 48.4119 55.0018 48.37 54.767L43.9837 30.0471C43.9311 29.7507 43.9636 29.4454 44.0775 29.1668C44.1914 28.8881 44.382 28.6473 44.6272 28.4724C44.8727 28.2974 45.1627 28.1952 45.4638 28.1776C45.7649 28.1599 46.0648 28.2275 46.3292 28.3727L51.921 31.4538C53.7596 28.3044 58.9102 20.7092 69.327 13.4578C69.499 13.3377 69.6931 13.2527 69.898 13.2077C70.103 13.1626 70.3148 13.1584 70.5215 13.1952C70.7281 13.232 70.9254 13.3091 71.1022 13.4222C71.2789 13.5352 71.4317 13.682 71.5516 13.8541C71.6718 14.0262 71.7569 14.2204 71.8021 14.4254C71.8472 14.6304 71.8515 14.8423 71.8146 15.049C71.7778 15.2556 71.7006 15.453 71.5875 15.6299C71.4743 15.8067 71.3273 15.9596 71.155 16.0796C58.6029 24.8191 54.0485 34.22 54.0065 34.3119C53.9126 34.5094 53.7794 34.6858 53.6151 34.8302C53.4507 34.9746 53.2586 35.084 53.0504 35.1517C52.8427 35.2183 52.6235 35.2419 52.4063 35.2212C52.1891 35.2004 51.9784 35.1357 51.7871 35.031L47.716 32.787L51.1725 52.2659L69.5082 44.7993L65.1009 42.369C64.7782 42.1914 64.5269 41.9079 64.3895 41.5664C64.2522 41.2249 64.2372 40.8464 64.3471 40.4951C64.4784 40.0752 67.6906 30.0891 78.462 20.41C78.6179 20.2697 78.7998 20.1614 78.9976 20.0914C79.1954 20.0213 79.405 19.991 79.6145 20.0019C79.8241 20.0129 80.0294 20.065 80.2187 20.1553C80.4081 20.2456 80.5778 20.3723 80.7181 20.5281C81.0019 20.8431 81.1489 21.2578 81.1268 21.6811C81.1046 22.1044 80.9151 22.5015 80.5999 22.7852C72.6311 29.9447 69.0433 37.3877 67.8587 40.2405L73.9838 43.6156C74.2476 43.7619 74.4647 43.9797 74.6102 44.2439C74.7556 44.5081 74.8234 44.8079 74.8058 45.1089C74.789 45.4102 74.6867 45.7005 74.5109 45.9459C74.3351 46.1913 74.0931 46.3816 73.8131 46.4947L50.5474 55.969C50.3562 56.0458 50.1519 56.085 49.9459 56.0845Z" fill="#00FFA3"/>
<path d="M79.5256 10.8487C79.2285 10.8493 78.9371 10.7671 78.6843 10.6113C78.4314 10.4556 78.227 10.2324 78.0941 9.96691C77.9042 9.58822 77.8724 9.14968 78.0059 8.74763C78.1394 8.34559 78.4271 8.01291 78.8059 7.82271C85.6899 4.37415 93.3804 1.7523 101.657 0.0332711C101.862 -0.00934711 102.074 -0.0110372 102.281 0.0282893C102.487 0.0676159 102.684 0.1472 102.859 0.26248C103.035 0.37776 103.186 0.526481 103.304 0.700154C103.422 0.873827 103.505 1.06905 103.548 1.27466C103.633 1.68948 103.55 2.12119 103.317 2.47499C103.084 2.82879 102.72 3.07576 102.305 3.16165C94.2918 4.82295 86.8641 7.3608 80.2426 10.6808C80.0196 10.7907 79.7743 10.8482 79.5256 10.8487Z" fill="#00FFA3"/>
<path d="M109.108 56.0849C108.901 56.0848 108.696 56.0447 108.504 55.9668L85.2384 46.4925C84.9589 46.3786 84.7174 46.1881 84.5417 45.9429C84.366 45.6977 84.2634 45.4078 84.2456 45.1068C84.2285 44.8055 84.2969 44.5056 84.4428 44.2415C84.5886 43.9773 84.8061 43.7596 85.0703 43.6134L91.198 40.2436C90.3627 38.207 88.293 33.8294 84.2902 28.9085C79.2289 22.6885 69.9416 14.2902 54.4346 9.60552C54.0285 9.48301 53.6877 9.20432 53.4873 8.83076C53.2868 8.45719 53.243 8.01934 53.3656 7.61354C53.4882 7.20775 53.7671 6.86724 54.141 6.66693C54.5149 6.46661 54.953 6.42288 55.3592 6.54538C71.7197 11.4899 81.5271 20.4105 86.8773 27.0163C92.7082 34.2257 94.6281 40.2384 94.7069 40.4903C94.8179 40.8416 94.8034 41.2204 94.6659 41.5622C94.5284 41.9039 94.2765 42.1874 93.9532 42.3642L89.5485 44.7945L107.882 52.2611L111.341 32.7822L107.27 35.0262C107.078 35.1316 106.867 35.1967 106.649 35.2174C106.431 35.2382 106.212 35.2142 106.004 35.1469C105.795 35.0794 105.603 34.9698 105.439 34.8249C105.275 34.6799 105.143 34.5028 105.05 34.3044C105.024 34.2493 102.187 28.3705 94.8514 21.6282C88.0776 15.4082 75.9668 7.15425 56.7302 3.16506C56.5248 3.12255 56.3297 3.04002 56.1562 2.92217C55.9827 2.80432 55.8341 2.65345 55.719 2.47821C55.6039 2.30298 55.5244 2.1068 55.4852 1.90088C55.446 1.69495 55.4478 1.48332 55.4905 1.27808C55.533 1.07247 55.6157 0.877245 55.7338 0.703572C55.8518 0.529899 56.003 0.381178 56.1786 0.265898C56.3542 0.150618 56.5508 0.0710338 56.7573 0.0317073C56.9637 -0.00761925 57.1758 -0.00592914 57.3816 0.036689C77.4245 4.19385 90.0712 12.8651 97.1522 19.4053C102.72 24.5493 105.799 29.1683 107.133 31.4516L112.72 28.3705C112.984 28.2254 113.284 28.1577 113.585 28.1754C113.886 28.193 114.176 28.2952 114.422 28.4702C114.667 28.6451 114.857 28.8859 114.971 29.1646C115.085 29.4433 115.118 29.7485 115.065 30.0449L110.676 54.7648C110.636 54.9983 110.545 55.2199 110.408 55.4138C110.272 55.6076 110.094 55.7687 109.888 55.8855C109.649 56.0173 109.381 56.086 109.108 56.0849Z" fill="#00FFA3"/>
</svg>
