<svg width="92" height="105" viewBox="0 0 92 105" fill="none" xmlns="http://www.w3.org/2000/svg">
<path d="M91.7051 104.196L75.673 92.1299H69.7443H12.5252C0 92.1299 0 80.7633 0 80.7633V11.8749C0 11.8749 0 2.48101 9.39388 0.779678L9.49823 0.508301H82.2069L81.9772 0.72749C91.6633 2.29314 91.6738 11.8749 91.6738 11.8749L91.7051 104.196ZM70.1514 32.03C69.212 27.5209 54.9333 22.9388 53.6391 25.0472C54.0774 26.3415 60.7471 26.6233 67.0097 31.8943C61.102 28.0532 51.9377 26.9677 47.4599 26.6755L45.9673 26.6024L44.5166 26.6755C40.0388 26.9886 30.885 28.0741 24.9668 31.8943C31.2294 26.6755 37.9095 26.3415 38.3479 25.0472C37.0536 22.9597 22.7749 27.5209 21.8355 32.03C21.8355 32.03 14.3831 46.5592 15.5729 60.4204C19.9881 66.6829 29.3089 68.6244 31.8244 67.9981C32.927 66.7567 33.8961 65.4028 34.7156 63.9587C34.7156 63.9587 27.6702 61.0571 25.9167 57.8423C29.6638 59.8254 33.0874 63.2907 44.4539 63.6769H47.4808C58.837 63.2907 62.3649 59.8254 66.112 57.8423C64.3585 61.0571 57.3966 63.9796 57.3966 63.9796C58.2276 65.4156 59.1997 66.7652 60.2983 68.0085C62.8137 68.6348 72.1346 66.7351 76.5497 60.4308C77.6039 46.5592 70.1514 32.03 70.1514 32.03Z" fill="#00FFA3"/>
<path d="M31.0935 49.6587C31.0935 46.2351 33.1185 43.8345 36.5524 43.8345C39.9864 43.8345 41.6251 47.8112 41.6251 49.6587C41.6251 51.1721 39.976 55.4829 36.5524 55.4829C33.1289 55.4829 31.0935 53.0822 31.0935 49.6587Z" fill="#00FFA3"/>
<path d="M60.5382 49.6587C60.5382 46.2351 58.5133 43.8345 55.0793 43.8345C51.6454 43.8345 50.0066 47.8112 50.0066 49.6587C50.0066 51.1721 51.6558 55.4829 55.0793 55.4829C58.5029 55.4829 60.5382 53.0822 60.5382 49.6587Z" fill="#00FFA3"/>
</svg>
