<svg width="206" height="188" viewBox="0 0 206 188" fill="none" xmlns="http://www.w3.org/2000/svg">
<path d="M127.492 101.765L151.798 87.7321L176.103 101.765V129.83L151.798 143.863L127.492 129.83V101.765Z" stroke="#383838" stroke-width="3"/>
<path d="M78.4921 101.765L102.798 87.7321L127.103 101.765V129.83L102.798 143.863L78.4921 129.83V101.765Z" stroke="#383838" stroke-width="3"/>
<path d="M54.4921 143.765L78.7976 129.732L103.103 143.765V171.83L78.7976 185.863L54.4921 171.83V143.765Z" stroke="#383838" stroke-width="3"/>
<path d="M151.492 143.765L175.798 129.732L200.103 143.765V171.83L175.798 185.863L151.492 171.83V143.765Z" stroke="#383838" stroke-width="3"/>
<path d="M29.4921 101.765L53.7976 87.7321L78.1031 101.765V129.83L53.7976 143.863L29.4921 129.83V101.765Z" stroke="#383838" stroke-width="3"/>
<path d="M5.49212 143.765L29.7976 129.732L54.1031 143.765V171.83L29.7976 185.863L5.49212 171.83V143.765Z" stroke="#383838" stroke-width="3"/>
<path d="M102.492 143.765L126.798 129.732L151.103 143.765V171.83L126.798 185.863L102.492 171.83V143.765Z" stroke="#383838" stroke-width="3"/>
<circle cx="79.3237" cy="132" r="4" fill="black" stroke="#383838" stroke-width="4"/>
<circle cx="176.324" cy="132" r="4" fill="black" stroke="#383838" stroke-width="4"/>
<circle cx="30.3237" cy="132" r="4" fill="black" stroke="#383838" stroke-width="4"/>
<circle cx="127.324" cy="132" r="4" fill="black" stroke="#383838" stroke-width="4"/>
<path d="M79.1684 18.1616L103.474 4.12878L127.779 18.1616V46.2271L103.474 60.2599L79.1684 46.2271V18.1616Z" stroke="white" stroke-width="3"/>
<path d="M103.492 59.7648L127.798 45.7321L152.103 59.7648V87.8304L127.798 101.863L103.492 87.8304V59.7648Z" stroke="white" stroke-width="3"/>
<path d="M54.4922 59.7648L78.7977 45.7321L103.103 59.7648V87.8276L78.7976 101.771L54.4922 87.8276V59.7648Z" stroke="white" stroke-width="3"/>
<circle cx="104" cy="6" r="4" fill="black" stroke="white" stroke-width="4"/>
<circle cx="128.324" cy="48" r="4" fill="black" stroke="white" stroke-width="4"/>
<circle cx="79.3237" cy="48" r="4" fill="black" stroke="white" stroke-width="4"/>
<circle cx="152.324" cy="90" r="4" fill="black" stroke="white" stroke-width="4"/>
<circle cx="103.324" cy="90" r="4" fill="black" stroke="white" stroke-width="4"/>
<circle cx="54.3237" cy="90" r="4" fill="black" stroke="white" stroke-width="4"/>
</svg>
