<svg width="108" height="94" viewBox="0 0 108 94" fill="none" xmlns="http://www.w3.org/2000/svg">
<g clip-path="url(#clip0_1041_467)">
<path d="M69.0312 29.375C65.7012 29.375 62.446 28.5136 59.6772 26.8997C56.9084 25.2858 54.7503 22.992 53.476 20.3082C52.2016 17.6244 51.8682 14.6712 52.5179 11.8221C53.1675 8.97304 54.7711 6.35596 57.1258 4.30188C59.4804 2.24779 62.4805 0.848942 65.7465 0.282221C69.0126 -0.284499 72.3979 0.00636797 75.4745 1.11803C78.551 2.22969 81.1805 4.11224 83.0306 6.52759C84.8807 8.94294 85.8681 11.7826 85.8681 14.6875C85.8681 18.5829 84.0943 22.3187 80.9367 25.0732C77.7792 27.8276 73.4967 29.375 69.0312 29.375ZM69.0312 2.93752C66.3672 2.93752 63.7631 3.62663 61.548 4.91774C59.333 6.20885 57.6065 8.04396 56.5871 10.191C55.5676 12.338 55.3008 14.7006 55.8205 16.9798C56.3403 19.2591 57.6231 21.3528 59.5069 22.996C61.3906 24.6393 63.7906 25.7584 66.4035 26.2117C69.0163 26.6651 71.7246 26.4324 74.1858 25.5431C76.647 24.6537 78.7507 23.1477 80.2307 21.2155C81.7108 19.2832 82.5008 17.0114 82.5008 14.6875C82.5008 11.5712 81.0817 8.58256 78.5556 6.379C76.0296 4.17545 72.6036 2.93752 69.0312 2.93752Z" fill="white"/>
<path d="M95.9703 42.5937C94.6383 42.5937 93.3362 42.2492 92.2287 41.6036C91.1212 40.958 90.258 40.0405 89.7482 38.967C89.2385 37.8935 89.1052 36.7122 89.365 35.5726C89.6249 34.4329 90.2663 33.3861 91.2081 32.5645C92.15 31.7428 93.35 31.1833 94.6565 30.9566C95.9629 30.73 97.317 30.8463 98.5476 31.2909C99.7782 31.7356 100.83 32.4886 101.57 33.4547C102.31 34.4209 102.705 35.5568 102.705 36.7187C102.705 38.2769 101.996 39.7712 100.733 40.873C99.4695 41.9748 97.7565 42.5937 95.9703 42.5937ZM95.9703 33.7812C95.3043 33.7812 94.6533 33.9535 94.0995 34.2763C93.5458 34.5991 93.1142 35.0578 92.8593 35.5946C92.6044 36.1313 92.5377 36.722 92.6677 37.2918C92.7976 37.8616 93.1183 38.385 93.5892 38.7959C94.0602 39.2067 94.6602 39.4865 95.3134 39.5998C95.9666 39.7131 96.6437 39.6549 97.259 39.4326C97.8743 39.2103 98.4002 38.8338 98.7702 38.3507C99.1402 37.8677 99.3377 37.2997 99.3377 36.7187C99.3377 35.9397 98.983 35.1925 98.3514 34.6416C97.7199 34.0907 96.8634 33.7812 95.9703 33.7812Z" fill="white"/>
<path d="M95.9703 42.5938C95.5238 42.5938 95.0955 42.439 94.7798 42.1636C94.464 41.8881 94.2866 41.5146 94.2866 41.125C94.2866 40.7355 94.464 40.3619 94.7798 40.0865C95.0955 39.811 95.5238 39.6563 95.9703 39.6563C102.941 39.6563 104.389 36.3663 104.49 36.2341C104.647 35.8794 104.955 35.5915 105.35 35.431C105.745 35.2705 106.196 35.2499 106.608 35.3735C107.02 35.4972 107.362 35.7555 107.56 36.094C107.758 36.4325 107.798 36.825 107.672 37.1888C107.588 37.4091 105.5 42.5938 95.9703 42.5938Z" fill="white"/>
<path d="M90.4478 48.4687C89.9637 48.4763 89.4796 48.4517 88.9998 48.3953C88.5532 48.3408 88.1499 48.1337 87.8783 47.8197C87.6068 47.5057 87.4893 47.1105 87.5518 46.7209C87.6143 46.3314 87.8517 45.9795 88.2116 45.7426C88.5716 45.5057 89.0247 45.4033 89.4713 45.4578C91.9593 45.6914 94.455 45.0814 96.4417 43.7541C98.3611 42.2853 99.3377 39.8912 99.3377 36.6306C99.3377 36.2411 99.5151 35.8675 99.8308 35.592C100.147 35.3166 100.575 35.1619 101.021 35.1619C101.468 35.1619 101.896 35.3166 102.212 35.592C102.528 35.8675 102.705 36.2411 102.705 36.6306C102.705 40.7872 101.324 43.9744 98.6137 45.9865C96.318 47.6367 93.4219 48.517 90.4478 48.4687Z" fill="white"/>
<path d="M62.2966 39.6562H38.7249C38.2784 39.6562 37.8502 39.5015 37.5344 39.226C37.2187 38.9506 37.0413 38.577 37.0413 38.1875C37.0413 37.798 37.2187 37.4244 37.5344 37.149C37.8502 36.8735 38.2784 36.7188 38.7249 36.7188H62.2966C62.7431 36.7188 63.1714 36.8735 63.4871 37.149C63.8029 37.4244 63.9803 37.798 63.9803 38.1875C63.9803 38.577 63.8029 38.9506 63.4871 39.226C63.1714 39.5015 62.7431 39.6562 62.2966 39.6562Z" fill="white"/>
<path d="M75.766 93.9999H58.9291C58.4826 93.9999 58.0544 93.8451 57.7386 93.5697C57.4229 93.2942 57.2454 92.9207 57.2454 92.5311V88.404C52.7755 88.9261 48.2458 88.9261 43.7759 88.404V92.5311C43.7759 92.9207 43.5985 93.2942 43.2828 93.5697C42.967 93.8451 42.5388 93.9999 42.0922 93.9999H25.2553C25.0135 94.0017 24.774 93.9581 24.5532 93.8719C24.3323 93.7857 24.1354 93.6591 23.9757 93.5005C23.8182 93.3404 23.7021 93.1526 23.6353 92.9498C23.5685 92.7471 23.5525 92.5341 23.5885 92.3255L25.1207 82.9843C18.1404 79.1356 12.9731 73.2315 10.5567 66.3433L3.70415 67.533C3.47097 67.5745 3.23034 67.5724 2.99816 67.5268C2.76599 67.4812 2.54751 67.3932 2.35717 67.2686C2.16527 67.1442 2.00597 66.9855 1.88985 66.8032C1.77372 66.6208 1.70344 66.419 1.6837 66.2111L1.49617e-05 47.1174C-0.0213715 46.8946 0.0158098 46.6705 0.108739 46.4622C0.201669 46.2539 0.347873 46.0668 0.536239 45.9152C0.724604 45.7637 0.950144 45.6516 1.19568 45.5876C1.44121 45.5236 1.70028 45.5093 1.9531 45.5458L10.4894 46.7942C12.0935 41.155 15.3883 35.9896 20.0359 31.8277L16.8369 19.4168C16.7406 19.0411 16.8172 18.6475 17.0502 18.3206C17.2833 17.9938 17.654 17.7598 18.0828 17.669C25.4742 16.0533 35.408 17.8011 39.533 23.3089C41.9764 22.8154 44.4497 22.4427 46.9413 22.1927C47.1624 22.1734 47.3857 22.1923 47.5984 22.2483C47.8111 22.3043 48.0091 22.3963 48.1811 22.519C48.3531 22.6418 48.4957 22.7929 48.6007 22.9637C48.7057 23.1345 48.7712 23.3217 48.7933 23.5146C48.8154 23.7075 48.7938 23.9023 48.7296 24.0878C48.6654 24.2734 48.5599 24.4461 48.4192 24.5962C48.2785 24.7462 48.1053 24.8706 47.9095 24.9622C47.7137 25.0538 47.4991 25.1109 47.278 25.1302C44.5772 25.4207 41.8963 25.8375 39.2468 26.3786H39.0448C38.6808 26.4455 38.3018 26.4055 37.9667 26.2646C37.6317 26.1238 37.3595 25.8902 37.1927 25.6002C34.4314 20.7827 26.2655 19.4608 20.5073 20.2099L23.5043 31.9599C23.5834 32.2216 23.5781 32.4971 23.4889 32.7563C23.3998 33.0155 23.2303 33.2482 22.9992 33.4287C18.095 37.5867 14.7492 42.9428 13.4022 48.7918C13.3201 49.1669 13.0738 49.4993 12.7155 49.7187C12.3572 49.938 11.915 50.027 11.4828 49.9668L3.50207 48.8065L4.8659 64.3752L11.4154 63.2296C11.8434 63.1546 12.2881 63.2275 12.6556 63.4331C13.0231 63.6386 13.2848 63.9606 13.3854 64.3311C14.3957 67.8063 16.1869 71.072 18.6552 73.9387C21.1234 76.8054 24.2196 79.216 27.764 81.0308C28.0499 81.1788 28.2791 81.3971 28.423 81.6585C28.5668 81.9199 28.6187 82.2125 28.5722 82.4996L27.1579 91.1065H40.4085V86.7002C40.4102 86.4833 40.4669 86.2693 40.5746 86.0738C40.6823 85.8783 40.8384 85.706 41.0315 85.5693C41.2237 85.4308 41.4488 85.3313 41.6905 85.278C41.9321 85.2246 42.1844 85.2188 42.429 85.2608C47.7764 86.0743 53.2449 86.0743 58.5924 85.2608C58.837 85.2188 59.0892 85.2246 59.3309 85.278C59.5726 85.3313 59.7976 85.4308 59.9899 85.5693C60.183 85.706 60.339 85.8783 60.4468 86.0738C60.5545 86.2693 60.6112 86.4833 60.6128 86.7002V91.1065H73.8298L72.4155 82.4996C72.369 82.2125 72.4209 81.9199 72.5647 81.6585C72.7085 81.3971 72.9378 81.1788 73.2236 81.0308C82.6018 76.1252 87.5518 67.4302 87.5518 55.8565C87.5518 47.044 84.8579 39.994 79.5543 34.8093C79.2551 34.5171 79.1012 34.1332 79.1265 33.7421C79.1518 33.351 79.3541 32.9846 79.689 32.7236C80.0239 32.4627 80.464 32.3284 80.9123 32.3504C81.3607 32.3725 81.7807 32.549 82.0798 32.8411C87.9391 38.5986 90.9192 46.339 90.9192 55.8565C90.9192 71.1461 82.9722 79.048 75.9007 83.0283L77.4329 92.3696C77.4688 92.5782 77.4529 92.7911 77.386 92.9939C77.3192 93.1966 77.2031 93.3845 77.0456 93.5446C76.8814 93.6951 76.6824 93.8136 76.4618 93.892C76.2412 93.9705 76.0041 94.0073 75.766 93.9999Z" fill="white"/>
</g>
<defs>
<clipPath id="clip0_1041_467">
<rect width="107.756" height="94" fill="white"/>
</clipPath>
</defs>
</svg>
