<svg width="142" height="102" viewBox="0 0 142 102" fill="none" xmlns="http://www.w3.org/2000/svg">
<path d="M140.219 101.671H1.73182C1.5044 101.671 1.2792 101.626 1.06908 101.539C0.858973 101.452 0.668105 101.324 0.507293 101.163C0.34648 101.002 0.21887 100.811 0.131839 100.601C0.0448083 100.391 0 100.165 0 99.9379V1.73264C0 1.27312 0.182518 0.832417 0.507293 0.507486C0.832067 0.182554 1.27252 0 1.73182 0C2.19112 0 2.63164 0.182554 2.95642 0.507486C3.28119 0.832417 3.46364 1.27312 3.46364 1.73264V98.211H140.207C140.667 98.211 141.107 98.3935 141.432 98.7185C141.757 99.0434 141.939 99.4841 141.939 99.9436C141.939 100.403 141.757 100.844 141.432 101.169C141.107 101.494 140.667 101.676 140.207 101.676L140.219 101.671Z" fill="white"/>
<path d="M60.8686 54.4602C60.5349 54.4581 60.2089 54.3593 59.9302 54.1757L37.5051 39.6375L15.0941 52.4915C14.8962 52.6246 14.6731 52.7153 14.4386 52.7581C14.204 52.8009 13.9632 52.7948 13.7311 52.7402C13.4991 52.6856 13.2808 52.5836 13.09 52.4407C12.8991 52.2978 12.7398 52.117 12.622 51.9096C12.5043 51.7022 12.4306 51.4727 12.4056 51.2356C12.3805 50.9984 12.4047 50.7585 12.4766 50.5311C12.5485 50.3037 12.6665 50.0936 12.8233 49.914C12.9801 49.7343 13.1723 49.589 13.3879 49.4871L36.706 36.1154C36.9823 35.9577 37.2966 35.8791 37.6146 35.8881C37.9326 35.8971 38.242 35.9935 38.5089 36.1666L60.4563 50.3918L82.7706 20.3624C82.9238 20.1564 83.1208 19.9871 83.3474 19.8666C83.5741 19.7461 83.8246 19.6776 84.081 19.6659C84.3373 19.6542 84.5931 19.6996 84.8297 19.7989C85.0664 19.8982 85.278 20.0489 85.4493 20.24L107.832 45.2451L129.808 31.9474C130.2 31.7228 130.665 31.6606 131.102 31.774C131.54 31.8875 131.916 32.1677 132.15 32.5548C132.384 32.9419 132.457 33.4051 132.354 33.8455C132.251 34.2859 131.98 34.6687 131.599 34.9119L108.395 48.9522C108.049 49.1613 107.642 49.243 107.243 49.1832C106.843 49.1235 106.477 48.926 106.208 48.625L84.2863 24.1292L62.2649 53.7604C62.1034 53.9784 61.8928 54.1554 61.6502 54.277C61.4077 54.3986 61.1399 54.4613 60.8686 54.4602Z" fill="#FF00B8"/>
<path d="M14.2439 90.9422C13.833 90.9442 13.4352 90.7977 13.1235 90.5297C12.7744 90.2319 12.5575 89.8078 12.5202 89.3503C12.4828 88.8928 12.6283 88.4392 12.9245 88.0887L36.2141 60.688C36.4363 60.4264 36.7312 60.2367 37.0613 60.143C37.3914 60.0493 37.7418 60.0558 38.0682 60.1617L38.1791 60.1987C38.3033 60.2392 38.4225 60.2935 38.5345 60.3608L60.7152 73.6643L83.0778 56.1359C83.323 55.9439 83.6154 55.8216 83.9242 55.7821C84.233 55.7425 84.5468 55.7871 84.8324 55.9112L84.912 55.9453C85.0267 55.9945 85.1354 56.0565 85.2361 56.1302L107.804 72.347L130.249 67.317C130.473 67.2608 130.706 67.25 130.934 67.2853C131.162 67.3206 131.381 67.4012 131.578 67.5224C131.775 67.6436 131.945 67.8029 132.079 67.9911C132.213 68.1792 132.309 68.3922 132.359 68.6177C132.41 68.8432 132.415 69.0765 132.374 69.304C132.333 69.5314 132.247 69.7485 132.121 69.9422C131.996 70.1359 131.832 70.3025 131.641 70.4321C131.45 70.5617 131.234 70.6518 131.008 70.6969L107.804 75.8976C107.565 75.9513 107.317 75.9538 107.078 75.9047C106.838 75.8557 106.611 75.7563 106.413 75.6131L84.2039 59.6411L61.9124 77.1125C61.6367 77.3279 61.3022 77.4548 60.9531 77.4766C60.6039 77.4985 60.2563 77.4142 59.9559 77.2348L37.9032 64.0167L15.5492 90.322C15.3891 90.5133 15.1896 90.6678 14.9643 90.7748C14.739 90.8819 14.4933 90.939 14.2439 90.9422Z" fill="#FF005C"/>
<path d="M26.8412 90.941C26.3827 90.941 25.9429 90.7588 25.6187 90.4344C25.2944 90.11 25.1123 89.67 25.1123 89.2112V87.4786C25.1028 87.2454 25.1406 87.0126 25.2233 86.7943C25.306 86.576 25.4319 86.3767 25.5935 86.2084C25.7551 86.04 25.9491 85.906 26.1637 85.8145C26.3784 85.723 26.6093 85.6758 26.8426 85.6758C27.076 85.6758 27.3069 85.723 27.5215 85.8145C27.7362 85.906 27.9302 86.04 28.0918 86.2084C28.2534 86.3767 28.3793 86.576 28.462 86.7943C28.5447 87.0126 28.5825 87.2454 28.5731 87.4786V89.2112C28.5723 89.6703 28.3895 90.1102 28.0648 90.4346C27.7401 90.7589 27.3 90.941 26.8412 90.941Z" fill="white"/>
<path d="M37.8039 90.9411C37.3454 90.9411 36.9056 90.7589 36.5813 90.4345C36.2571 90.1101 36.075 89.6701 36.075 89.2114V73.6234C36.0931 73.1764 36.2833 72.7537 36.6058 72.4439C36.9284 72.134 37.3582 71.9609 37.8053 71.9609C38.2525 71.9609 38.6823 72.134 39.0048 72.4439C39.3274 72.7537 39.5176 73.1764 39.5357 73.6234V89.2114C39.5349 89.6704 39.3522 90.1104 39.0275 90.4347C38.7028 90.759 38.2627 90.9411 37.8039 90.9411Z" fill="white"/>
<path d="M48.766 90.9419C48.3075 90.9419 47.8677 90.7597 47.5435 90.4353C47.2193 90.1109 47.0371 89.6709 47.0371 89.2121V78.8192C47.0552 78.3722 47.2454 77.9495 47.5679 77.6397C47.8905 77.3298 48.3203 77.1567 48.7675 77.1567C49.2146 77.1567 49.6444 77.3298 49.9669 77.6397C50.2895 77.9495 50.4797 78.3722 50.4978 78.8192V89.2121C50.4978 89.4395 50.4531 89.6647 50.366 89.8747C50.2789 90.0848 50.1513 90.2756 49.9905 90.4363C49.8296 90.5969 49.6386 90.7243 49.4285 90.8111C49.2184 90.8979 48.9933 90.9423 48.766 90.9419Z" fill="white"/>
<path d="M59.7284 90.9422C59.2699 90.9422 58.8301 90.7599 58.5059 90.4355C58.1817 90.1111 57.9995 89.6712 57.9995 89.2124V84.0145C58.0176 83.5675 58.2078 83.1448 58.5303 82.835C58.8529 82.5251 59.2827 82.3521 59.7299 82.3521C60.177 82.3521 60.6068 82.5251 60.9293 82.835C61.2519 83.1448 61.4421 83.5675 61.4602 84.0145V89.2124C61.4602 89.4398 61.4154 89.6649 61.3283 89.875C61.2413 90.0851 61.1137 90.2759 60.9528 90.4365C60.792 90.5972 60.601 90.7246 60.3909 90.8113C60.1808 90.8981 59.9557 90.9425 59.7284 90.9422Z" fill="white"/>
<path d="M70.6964 90.942C70.4691 90.9423 70.2439 90.8979 70.0339 90.8111C69.8238 90.7244 69.6328 90.597 69.472 90.4363C69.3111 90.2757 69.1835 90.0848 69.0965 89.8748C69.0094 89.6647 68.9646 89.4396 68.9646 89.2122V80.5519C68.9551 80.3186 68.9929 80.0858 69.0756 79.8676C69.1583 79.6493 69.2842 79.4499 69.4458 79.2816C69.6074 79.1132 69.8014 78.9792 70.0161 78.8877C70.2307 78.7962 70.4617 78.749 70.695 78.749C70.9283 78.749 71.1592 78.7962 71.3738 78.8877C71.5885 78.9792 71.7825 79.1132 71.9441 79.2816C72.1057 79.4499 72.2317 79.6493 72.3144 79.8676C72.3971 80.0858 72.4348 80.3186 72.4254 80.5519V89.2122C72.4254 89.6709 72.2432 90.1109 71.919 90.4353C71.5947 90.7597 71.1549 90.942 70.6964 90.942Z" fill="white"/>
<path d="M81.6563 90.9415C81.429 90.9419 81.2039 90.8975 80.9938 90.8107C80.7837 90.724 80.5928 90.5966 80.4319 90.4359C80.2711 90.2753 80.1435 90.0844 80.0564 89.8744C79.9694 89.6643 79.9245 89.4392 79.9245 89.2118V70.15C79.9151 69.9167 79.9528 69.684 80.0355 69.4657C80.1182 69.2474 80.2442 69.0481 80.4058 68.8797C80.5674 68.7113 80.7613 68.5774 80.976 68.4858C81.1906 68.3943 81.4215 68.3472 81.6549 68.3472C81.8882 68.3472 82.1191 68.3943 82.3338 68.4858C82.5484 68.5774 82.7424 68.7113 82.904 68.8797C83.0657 69.0481 83.1916 69.2474 83.2743 69.4657C83.357 69.684 83.3948 69.9167 83.3853 70.15V89.2118C83.3853 89.6705 83.2031 90.1105 82.8788 90.4349C82.5546 90.7593 82.1149 90.9415 81.6563 90.9415Z" fill="white"/>
<path d="M92.6185 90.9422C92.1597 90.9422 91.7196 90.76 91.3949 90.4357C91.0702 90.1114 90.8874 89.6714 90.8867 89.2124V75.357C90.8772 75.1238 90.915 74.891 90.9977 74.6727C91.0804 74.4544 91.2063 74.2551 91.3679 74.0867C91.5295 73.9184 91.7235 73.7844 91.9381 73.6929C92.1528 73.6014 92.3837 73.5542 92.617 73.5542C92.8504 73.5542 93.0813 73.6014 93.2959 73.6929C93.5106 73.7844 93.7045 73.9184 93.8661 74.0867C94.0277 74.2551 94.1537 74.4544 94.2364 74.6727C94.3191 74.891 94.3568 75.1238 94.3474 75.357V89.2124C94.3474 89.6712 94.1652 90.1112 93.841 90.4356C93.5168 90.7599 93.077 90.9422 92.6185 90.9422Z" fill="white"/>
<path d="M103.581 90.9425C103.122 90.9425 102.682 90.7604 102.357 90.4361C102.033 90.1117 101.85 89.6718 101.849 89.2127V82.2794C101.84 82.0461 101.877 81.8133 101.96 81.5951C102.043 81.3768 102.169 81.1775 102.33 81.0091C102.492 80.8407 102.686 80.7068 102.901 80.6152C103.115 80.5237 103.346 80.4766 103.579 80.4766C103.813 80.4766 104.044 80.5237 104.258 80.6152C104.473 80.7068 104.667 80.8407 104.829 81.0091C104.99 81.1775 105.116 81.3768 105.199 81.5951C105.281 81.8133 105.319 82.0461 105.31 82.2794V89.2071C105.311 89.4347 105.266 89.6602 105.18 89.8708C105.093 90.0813 104.966 90.2726 104.805 90.4339C104.645 90.5951 104.454 90.723 104.244 90.8103C104.034 90.8976 103.808 90.9425 103.581 90.9425Z" fill="white"/>
<path d="M114.543 90.9417C114.084 90.9417 113.644 90.7595 113.319 90.4352C112.995 90.1109 112.812 89.6709 112.811 89.2119V82.2785C112.811 81.819 112.994 81.3783 113.319 81.0534C113.643 80.7284 114.084 80.5459 114.543 80.5459C115.002 80.5459 115.443 80.7284 115.768 81.0534C116.092 81.3783 116.275 81.819 116.275 82.2785V89.2062C116.275 89.434 116.231 89.6596 116.144 89.8701C116.057 90.0807 115.929 90.272 115.769 90.4332C115.608 90.5944 115.417 90.7223 115.206 90.8095C114.996 90.8968 114.771 90.9417 114.543 90.9417Z" fill="white"/>
<path d="M125.506 90.9418C125.047 90.9418 124.607 90.7596 124.282 90.4353C123.957 90.111 123.775 89.671 123.774 89.212V78.819C123.774 78.3595 123.956 77.9188 124.281 77.5939C124.606 77.269 125.046 77.0864 125.506 77.0864C125.965 77.0864 126.406 77.269 126.73 77.5939C127.055 77.9188 127.238 78.3595 127.238 78.819V89.212C127.237 89.671 127.054 90.111 126.729 90.4353C126.405 90.7596 125.965 90.9418 125.506 90.9418Z" fill="white"/>
</svg>
