<svg width="100" height="113" viewBox="0 0 100 113" fill="none" xmlns="http://www.w3.org/2000/svg">
<path d="M48.6237 113C48.1036 113 0.00168537 111.546 0.00168537 62.5196C0.00168537 62.5039 0.0014679 62.4819 0.0011892 62.4537C-0.0159674 60.7185 -0.265169 35.5138 35.6998 0.439309C35.9937 0.157532 36.3865 0 36.7952 0C37.204 0 37.5967 0.157532 37.8906 0.439309L61.0117 22.6388L67.8361 13.2587C68.0769 12.9261 68.4396 12.7004 68.8463 12.6303C69.253 12.5601 69.6712 12.651 70.0111 12.8835C75.5292 16.9181 80.5494 21.5829 84.9681 26.7816C94.787 38.2878 99.9881 50.6382 99.9881 62.5196C99.9881 62.5455 99.9891 62.5926 99.9904 62.66C100.032 64.6673 100.441 84.6836 86.7175 98.9924C77.8126 108.294 64.9834 113 48.6237 113ZM36.8189 3.73794C2.83364 37.4021 3.14472 61.7409 3.1537 62.4434C3.15378 62.4502 3.15384 62.4547 3.15384 62.4571C3.15384 108.451 46.7954 109.842 48.6552 109.873C64.1008 109.873 76.142 105.496 84.4322 96.8506C97.7028 83.0151 96.8517 62.801 96.8359 62.5978C96.8359 38.8037 74.96 20.5752 69.4595 16.3698L62.5089 25.9218C62.377 26.1029 62.2074 26.2538 62.0116 26.3643C61.8159 26.4749 61.5985 26.5426 61.3742 26.5628C61.1471 26.5835 60.9181 26.5551 60.7032 26.4795C60.4882 26.4039 60.2923 26.283 60.1291 26.125L36.8189 3.73794Z" fill="white"/>
<path d="M48.6237 113C48.1036 113 0.00168537 111.546 0.00168537 62.5196C0.00168537 62.5039 0.0014679 62.4819 0.0011892 62.4537C-0.0159674 60.7185 -0.265169 35.5138 35.6998 0.439309C35.9937 0.157532 36.3865 0 36.7952 0C37.204 0 37.5967 0.157532 37.8906 0.439309L61.0117 22.6388L67.8361 13.2587C68.0769 12.9261 68.4396 12.7004 68.8463 12.6303C69.253 12.5601 69.6712 12.651 70.0111 12.8835C75.5292 16.9181 80.5494 21.5829 84.9681 26.7816C94.787 38.2878 99.9881 50.6382 99.9881 62.5196C99.9881 62.5455 99.9891 62.5926 99.9904 62.66C100.032 64.6673 100.441 84.6836 86.7175 98.9924C77.8126 108.294 64.9834 113 48.6237 113ZM36.8189 3.73794C2.83364 37.4021 3.14472 61.7409 3.1537 62.4434C3.15378 62.4502 3.15384 62.4547 3.15384 62.4571C3.15384 108.451 46.7954 109.842 48.6552 109.873C64.1008 109.873 76.142 105.496 84.4322 96.8506C97.7028 83.0151 96.8517 62.801 96.8359 62.5978C96.8359 38.8037 74.96 20.5752 69.4595 16.3698L62.5089 25.9218C62.377 26.1029 62.2074 26.2538 62.0116 26.3643C61.8159 26.4749 61.5985 26.5426 61.3742 26.5628C61.1471 26.5835 60.9181 26.5551 60.7032 26.4795C60.4882 26.4039 60.2923 26.283 60.1291 26.125L36.8189 3.73794Z" stroke="white"/>
<path d="M49.3304 92C49.0636 92 25.001 91.2873 25.001 66.9017C25.001 66.8944 25.0008 66.8838 25.0007 66.8701C24.9915 66.0409 24.8536 53.5732 42.5025 36.4429C42.7959 36.159 43.1904 36 43.6012 36C44.0121 36 44.4066 36.159 44.7 36.4429L55.2166 46.4977L57.9792 42.7329C58.219 42.4033 58.5802 42.1797 58.9853 42.1102C59.3903 42.0406 59.8068 42.1308 60.1453 42.3611L60.1514 42.3654C60.8325 42.8429 74.9941 52.7711 74.9941 66.9172C74.9941 66.9283 74.9946 66.9493 74.9952 66.9798C75.0152 67.9214 75.2272 77.8995 68.3545 85.0282C63.8811 89.6606 57.4769 92 49.3304 92ZM43.6327 39.7119C27.7792 55.592 28.1246 66.7158 28.1402 66.8242C28.1402 88.2043 48.5456 88.886 49.3618 88.9014C56.5822 88.9014 62.2172 86.8874 66.0785 82.8747C72.1375 76.5909 71.8687 67.4519 71.8553 66.9962C71.855 66.9868 71.8548 66.9811 71.8548 66.9792C71.8548 56.63 62.8922 48.4963 59.5645 45.816L56.7078 49.7357C56.5769 49.9176 56.4077 50.0693 56.2119 50.1807C56.0161 50.2921 55.7982 50.3604 55.5731 50.381C55.3481 50.4016 55.1212 50.374 54.908 50.3C54.6947 50.2261 54.5001 50.1076 54.3376 49.9526L43.6327 39.7119Z" fill="white"/>
<path d="M49.3304 92C49.0636 92 25.001 91.2873 25.001 66.9017C25.001 66.8944 25.0008 66.8838 25.0007 66.8701C24.9915 66.0409 24.8536 53.5732 42.5025 36.4429C42.7959 36.159 43.1904 36 43.6012 36C44.0121 36 44.4066 36.159 44.7 36.4429L55.2166 46.4977L57.9792 42.7329C58.219 42.4033 58.5802 42.1797 58.9853 42.1102C59.3903 42.0406 59.8068 42.1308 60.1453 42.3611L60.1514 42.3654C60.8325 42.8429 74.9941 52.7711 74.9941 66.9172C74.9941 66.9283 74.9946 66.9493 74.9952 66.9798C75.0152 67.9214 75.2272 77.8995 68.3545 85.0282C63.8811 89.6606 57.4769 92 49.3304 92ZM43.6327 39.7119C27.7792 55.592 28.1246 66.7158 28.1402 66.8242C28.1402 88.2043 48.5456 88.886 49.3618 88.9014C56.5822 88.9014 62.2172 86.8874 66.0785 82.8747C72.1375 76.5909 71.8687 67.4519 71.8553 66.9962C71.855 66.9868 71.8548 66.9811 71.8548 66.9792C71.8548 56.63 62.8922 48.4963 59.5645 45.816L56.7078 49.7357C56.5769 49.9176 56.4077 50.0693 56.2119 50.1807C56.0161 50.2921 55.7982 50.3604 55.5731 50.381C55.3481 50.4016 55.1212 50.374 54.908 50.3C54.6947 50.2261 54.5001 50.1076 54.3376 49.9526L43.6327 39.7119Z" stroke="white"/>
</svg>
