<svg width="106" height="95" viewBox="0 0 106 95" fill="none" xmlns="http://www.w3.org/2000/svg">
<path d="M104.344 95C103.904 95 103.483 94.8436 103.173 94.5652C102.862 94.2869 102.688 93.9093 102.688 93.5156V90.5469H36.4375C35.9982 90.5469 35.577 90.3905 35.2664 90.1121C34.9558 89.8337 34.7812 89.4562 34.7812 89.0625C34.7812 88.6688 34.9558 88.2913 35.2664 88.0129C35.577 87.7345 35.9982 87.5781 36.4375 87.5781H104.344C104.783 87.5781 105.204 87.7345 105.515 88.0129C105.825 88.2913 106 88.6688 106 89.0625V93.5156C106 93.9093 105.825 94.2869 105.515 94.5652C105.204 94.8436 104.783 95 104.344 95Z" fill="white"/>
<path d="M1.65625 95C1.21699 95 0.795736 94.8436 0.485128 94.5652C0.174521 94.2869 0 93.9093 0 93.5156V89.0625C0 88.6688 0.174521 88.2913 0.485128 88.0129C0.795736 87.7345 1.21699 87.5781 1.65625 87.5781H21.5312C21.9705 87.5781 22.3918 87.7345 22.7024 88.0129C23.013 88.2913 23.1875 88.6688 23.1875 89.0625C23.1875 89.4562 23.013 89.8337 22.7024 90.1121C22.3918 90.3905 21.9705 90.5469 21.5312 90.5469H3.3125V93.5156C3.3125 93.9093 3.13798 94.2869 2.82737 94.5652C2.51676 94.8436 2.09551 95 1.65625 95Z" fill="white"/>
<path d="M97.7188 87.5781C97.2795 87.5781 96.8582 87.4217 96.5476 87.1434C96.237 86.865 96.0625 86.4874 96.0625 86.0937V81.6406H9.9375V86.0937C9.9375 86.4874 9.76298 86.865 9.45237 87.1434C9.14176 87.4217 8.72051 87.5781 8.28125 87.5781C7.84199 87.5781 7.42074 87.4217 7.11013 87.1434C6.79952 86.865 6.625 86.4874 6.625 86.0937V80.1562C6.625 79.7626 6.79952 79.385 7.11013 79.1066C7.42074 78.8283 7.84199 78.6719 8.28125 78.6719H97.7188C98.158 78.6719 98.5793 78.8283 98.8899 79.1066C99.2005 79.385 99.375 79.7626 99.375 80.1562V86.0937C99.375 86.4874 99.2005 86.865 98.8899 87.1434C98.5793 87.4217 98.158 87.5781 97.7188 87.5781Z" fill="white"/>
<path d="M26.5 75.7034H26.1687C25.9555 75.6644 25.753 75.5882 25.5727 75.4791C25.3924 75.37 25.2378 75.2301 25.1179 75.0674C24.9979 74.9048 24.9149 74.7225 24.8735 74.5311C24.8322 74.3397 24.8333 74.1428 24.8769 73.9518C25.914 69.1549 26.5068 64.2894 26.6491 59.4049C26.4125 53.5063 25.8098 47.624 24.8437 41.7854C24.8108 41.5924 24.8207 41.3955 24.8728 41.2059C24.925 41.0163 25.0184 40.8378 25.1476 40.6806C25.2768 40.5234 25.4394 40.3906 25.626 40.2898C25.8125 40.189 26.0196 40.1222 26.235 40.0932C26.4504 40.0637 26.6701 40.0726 26.8816 40.1193C27.0931 40.1661 27.2923 40.2497 27.4677 40.3655C27.6431 40.4814 27.7912 40.6271 27.9037 40.7943C28.0162 40.9615 28.0907 41.147 28.1231 41.3401C29.1068 47.3165 29.7151 53.3377 29.945 59.3752C29.8303 64.4585 29.2318 69.5238 28.1562 74.5159C28.0788 74.8562 27.8706 75.1614 27.568 75.3784C27.2654 75.5954 26.8874 75.7104 26.5 75.7034Z" fill="white"/>
<path d="M26.5 43.0469H24.8438C24.4045 43.0469 23.9832 42.8905 23.6726 42.6121C23.362 42.3337 23.1875 41.9562 23.1875 41.5625C23.1875 41.1688 23.362 40.7913 23.6726 40.5129C23.9832 40.2345 24.4045 40.0781 24.8438 40.0781H26.5C26.9393 40.0781 27.3605 39.9217 27.6711 39.6434C27.9817 39.365 28.1562 38.9874 28.1562 38.5938C28.1562 38.2001 28.3308 37.8225 28.6414 37.5441C28.952 37.2658 29.3732 37.1094 29.8125 37.1094C30.2518 37.1094 30.673 37.2658 30.9836 37.5441C31.2942 37.8225 31.4688 38.2001 31.4688 38.5938C31.4688 39.7748 30.9453 40.9075 30.0135 41.7426C29.0816 42.5777 27.8178 43.0469 26.5 43.0469Z" fill="white"/>
<path d="M29.8125 78.6719C29.3732 78.6719 28.952 78.5155 28.6414 78.2371C28.3308 77.9587 28.1562 77.5812 28.1562 77.1875C28.1562 76.7938 27.9817 76.4163 27.6711 76.1379C27.3605 75.8595 26.9393 75.7031 26.5 75.7031H24.8438C24.4045 75.7031 23.9832 75.5467 23.6726 75.2684C23.362 74.99 23.1875 74.6124 23.1875 74.2188C23.1875 73.8251 23.362 73.4475 23.6726 73.1691C23.9832 72.8908 24.4045 72.7344 24.8438 72.7344H26.5C27.8178 72.7344 29.0816 73.2035 30.0135 74.0387C30.9453 74.8738 31.4688 76.0065 31.4688 77.1875C31.4688 77.5812 31.2942 77.9587 30.9836 78.2371C30.673 78.5155 30.2518 78.6719 29.8125 78.6719Z" fill="white"/>
<path d="M13.25 80.1563C12.8107 80.1563 12.3895 79.9999 12.0789 79.7215C11.7683 79.4431 11.5938 79.0656 11.5938 78.6719V77.1875C11.5927 76.3092 11.8814 75.4502 12.4237 74.7186C12.966 73.987 13.7375 73.4154 14.6413 73.0758C13.7232 68.5527 13.208 63.9713 13.1009 59.375C13.3019 53.7999 13.8548 48.2394 14.7571 42.7203C13.8291 42.3959 13.0313 41.829 12.4672 41.0932C11.9031 40.3573 11.5987 39.4865 11.5938 38.5938V37.1094C11.5938 36.7157 11.7683 36.3381 12.0789 36.0598C12.3895 35.7814 12.8107 35.625 13.25 35.625C13.6893 35.625 14.1105 35.7814 14.4211 36.0598C14.7317 36.3381 14.9063 36.7157 14.9063 37.1094V38.5938C14.9063 38.9874 15.0808 39.365 15.3914 39.6434C15.702 39.9217 16.1232 40.0781 16.5625 40.0781C16.8026 40.0757 17.0404 40.1201 17.2594 40.2082C17.4785 40.2963 17.6735 40.426 17.8311 40.5884C17.9886 40.7508 18.1049 40.9419 18.1718 41.1486C18.2388 41.3552 18.2548 41.5724 18.2188 41.7851C17.2539 47.6139 16.6512 53.4863 16.4134 59.375C16.5557 64.2595 17.1485 69.125 18.1856 73.9219C18.233 74.1375 18.2264 74.3599 18.1663 74.5729C18.1061 74.786 17.994 74.9844 17.8378 75.1539C17.6837 75.3242 17.4894 75.4618 17.2689 75.5567C17.0484 75.6517 16.8071 75.7017 16.5625 75.7031C16.1232 75.7031 15.702 75.8595 15.3914 76.1379C15.0808 76.4163 14.9063 76.7938 14.9063 77.1875V78.6719C14.9063 79.0656 14.7317 79.4431 14.4211 79.7215C14.1105 79.9999 13.6893 80.1563 13.25 80.1563Z" fill="white"/>
<path d="M89.4375 75.7031H89.1062C88.893 75.6642 88.6905 75.588 88.5102 75.4789C88.3299 75.3697 88.1753 75.2299 88.0554 75.0672C87.9354 74.9046 87.8524 74.7223 87.811 74.5309C87.7697 74.3394 87.7708 74.1426 87.8144 73.9516C88.8515 69.1547 89.4443 64.2891 89.5866 59.4047C89.35 53.5061 88.7473 47.6238 87.7812 41.7852C87.7486 41.5902 87.7592 41.3915 87.8122 41.2002C87.8653 41.0089 87.9599 40.8288 88.0906 40.6703C88.2214 40.5118 88.3857 40.3779 88.5742 40.2763C88.7626 40.1747 88.9715 40.1074 89.189 40.0781C89.4065 40.0489 89.6283 40.0583 89.8417 40.1059C90.0552 40.1535 90.256 40.2383 90.4329 40.3555C90.6098 40.4726 90.7592 40.6198 90.8725 40.7887C90.9859 40.9576 91.0611 41.1449 91.0937 41.3399C92.0775 47.3162 92.6857 53.3374 92.9156 59.375C92.7899 64.4591 92.1805 69.5244 91.0937 74.5156C91.0163 74.856 90.8081 75.1612 90.5055 75.3782C90.2029 75.5951 89.8249 75.7101 89.4375 75.7031Z" fill="white"/>
<path d="M89.4375 43.0469H87.7812C87.342 43.0469 86.9207 42.8905 86.6101 42.6121C86.2995 42.3337 86.125 41.9562 86.125 41.5625C86.125 41.1688 86.2995 40.7913 86.6101 40.5129C86.9207 40.2345 87.342 40.0781 87.7812 40.0781H89.4375C89.8768 40.0781 90.298 39.9217 90.6086 39.6434C90.9192 39.365 91.0938 38.9874 91.0938 38.5938C91.0938 38.2001 91.2683 37.8225 91.5789 37.5441C91.8895 37.2658 92.3107 37.1094 92.75 37.1094C93.1893 37.1094 93.6105 37.2658 93.9211 37.5441C94.2317 37.8225 94.4062 38.2001 94.4062 38.5938C94.4062 39.7748 93.8828 40.9075 92.951 41.7426C92.0191 42.5777 90.7553 43.0469 89.4375 43.0469Z" fill="white"/>
<path d="M92.75 78.6719C92.3107 78.6719 91.8895 78.5155 91.5789 78.2371C91.2683 77.9587 91.0938 77.5812 91.0938 77.1875C91.0938 76.7938 90.9192 76.4163 90.6086 76.1379C90.298 75.8595 89.8768 75.7031 89.4375 75.7031H87.7812C87.342 75.7031 86.9207 75.5467 86.6101 75.2684C86.2995 74.99 86.125 74.6124 86.125 74.2188C86.125 73.8251 86.2995 73.4475 86.6101 73.1691C86.9207 72.8908 87.342 72.7344 87.7812 72.7344H89.4375C90.7553 72.7344 92.0191 73.2035 92.951 74.0387C93.8828 74.8738 94.4062 76.0065 94.4062 77.1875C94.4062 77.5812 94.2317 77.9587 93.9211 78.2371C93.6105 78.5155 93.1893 78.6719 92.75 78.6719Z" fill="white"/>
<path d="M76.1875 80.1563C75.7482 80.1563 75.327 79.9999 75.0164 79.7215C74.7058 79.4431 74.5313 79.0656 74.5313 78.6719V77.1875C74.5302 76.3092 74.8189 75.4502 75.3612 74.7186C75.9035 73.987 76.675 73.4154 77.5788 73.0758C76.6607 68.5527 76.1455 63.9713 76.0384 59.375C76.2394 53.7999 76.7923 48.2394 77.6946 42.7203C76.7666 42.3959 75.9688 41.829 75.4047 41.0932C74.8406 40.3573 74.5362 39.4865 74.5313 38.5938V37.1094C74.5313 36.7157 74.7058 36.3381 75.0164 36.0598C75.327 35.7814 75.7482 35.625 76.1875 35.625C76.6268 35.625 77.048 35.7814 77.3586 36.0598C77.6692 36.3381 77.8438 36.7157 77.8438 37.1094V38.5938C77.8438 38.9874 78.0183 39.365 78.3289 39.6434C78.6395 39.9217 79.0607 40.0781 79.5 40.0781C79.7401 40.0757 79.9779 40.1201 80.1969 40.2082C80.416 40.2963 80.611 40.426 80.7686 40.5884C80.9261 40.7508 81.0424 40.9419 81.1093 41.1486C81.1763 41.3552 81.1923 41.5724 81.1563 41.7851C80.1914 47.6139 79.5887 53.4863 79.3509 59.375C79.4932 64.2595 80.086 69.125 81.1231 73.9219C81.1705 74.1375 81.1639 74.3599 81.1038 74.5729C81.0436 74.786 80.9315 74.9844 80.7753 75.1539C80.6212 75.3242 80.4269 75.4618 80.2064 75.5567C79.9859 75.6517 79.7446 75.7017 79.5 75.7031C79.0607 75.7031 78.6395 75.8595 78.3289 76.1379C78.0183 76.4163 77.8438 76.7938 77.8438 77.1875V78.6719C77.8438 79.0656 77.6692 79.4431 77.3586 79.7215C77.048 79.9999 76.6268 80.1563 76.1875 80.1563Z" fill="white"/>
<path d="M99.375 37.1095H6.625C6.18574 37.1095 5.76449 36.9531 5.45388 36.6748C5.14327 36.3964 4.96875 36.0188 4.96875 35.6251V26.7189C4.96993 26.4652 5.04358 26.2161 5.18276 25.9952C5.32193 25.7743 5.52196 25.5891 5.76372 25.4572L52.1387 0.222802C52.3905 0.0925209 52.6761 0.0239258 52.9668 0.0239258C53.2576 0.0239258 53.5432 0.0925209 53.795 0.222802L100.17 25.4572C100.412 25.5891 100.612 25.7743 100.751 25.9952C100.89 26.2161 100.964 26.4652 100.965 26.7189V35.6251C100.965 36.0087 100.8 36.3776 100.504 36.6543C100.207 36.931 99.8027 37.0942 99.375 37.1095ZM8.28125 34.1408H97.7188V27.5501L53 3.22123L8.28125 27.5501V34.1408Z" fill="white"/>
<path d="M66.25 80.1562C65.8107 80.1562 65.3895 79.9999 65.0789 79.7215C64.7683 79.4431 64.5938 79.0656 64.5938 78.6719V46.0156H41.4062V78.6719C41.4062 79.0656 41.2317 79.4431 40.9211 79.7215C40.6105 79.9999 40.1893 80.1562 39.75 80.1562C39.3107 80.1562 38.8895 79.9999 38.5789 79.7215C38.2683 79.4431 38.0938 79.0656 38.0938 78.6719V44.5312C38.0938 44.1376 38.2683 43.76 38.5789 43.4816C38.8895 43.2033 39.3107 43.0469 39.75 43.0469H66.25C66.6893 43.0469 67.1105 43.2033 67.4211 43.4816C67.7317 43.76 67.9062 44.1376 67.9062 44.5312V78.6719C67.9062 79.0656 67.7317 79.4431 67.4211 79.7215C67.1105 79.9999 66.6893 80.1562 66.25 80.1562Z" fill="white"/>
<path d="M53 22.2656C51.6897 22.2656 50.4088 21.9174 49.3193 21.265C48.2299 20.6126 47.3808 19.6852 46.8793 18.6003C46.3779 17.5154 46.2467 16.3215 46.5023 15.1698C46.7579 14.018 47.3889 12.9601 48.3154 12.1297C49.2419 11.2993 50.4225 10.7338 51.7076 10.5047C52.9927 10.2756 54.3248 10.3932 55.5353 10.8426C56.7459 11.292 57.7805 12.053 58.5085 13.0294C59.2364 14.0058 59.625 15.1538 59.625 16.3281C59.625 17.9029 58.927 19.4131 57.6846 20.5266C56.4422 21.6401 54.7571 22.2656 53 22.2656ZM53 13.3594C52.3449 13.3594 51.7044 13.5335 51.1597 13.8597C50.6149 14.1859 50.1903 14.6496 49.9396 15.192C49.6889 15.7345 49.6234 16.3314 49.7512 16.9073C49.879 17.4832 50.1945 18.0122 50.6578 18.4274C51.121 18.8425 51.7112 19.1253 52.3537 19.2398C52.9963 19.3544 53.6624 19.2956 54.2677 19.0709C54.873 18.8462 55.3903 18.4657 55.7543 17.9775C56.1183 17.4893 56.3125 16.9153 56.3125 16.3281C56.3125 15.5408 55.9635 14.7857 55.3423 14.2289C54.721 13.6722 53.8785 13.3594 53 13.3594Z" fill="white"/>
<path d="M87.7812 29.6875H18.2188C17.7795 29.6875 17.3582 29.5311 17.0476 29.2527C16.737 28.9744 16.5625 28.5968 16.5625 28.2031C16.5625 27.8094 16.737 27.4319 17.0476 27.1535C17.3582 26.8751 17.7795 26.7188 18.2188 26.7188H87.7812C88.2205 26.7188 88.6418 26.8751 88.9524 27.1535C89.263 27.4319 89.4375 27.8094 89.4375 28.2031C89.4375 28.5968 89.263 28.9744 88.9524 29.2527C88.6418 29.5311 88.2205 29.6875 87.7812 29.6875Z" fill="white"/>
</svg>
