<svg width="111" height="111" viewBox="0 0 111 111" fill="none" xmlns="http://www.w3.org/2000/svg">
<path d="M18.6416 26.681C23.0451 26.681 26.6148 23.1204 26.6148 18.7282C26.6148 14.336 23.0451 10.7754 18.6416 10.7754C14.2382 10.7754 10.6685 14.336 10.6685 18.7282C10.6685 23.1204 14.2382 26.681 18.6416 26.681Z" fill="#00FFA3"/>
<path d="M55.2731 94.5599C33.4648 94.5823 15.7666 76.9741 15.7441 55.2215C15.7425 45.1414 19.6078 35.4427 26.5472 28.1147L82.382 83.8068C75.0508 90.7077 65.3535 94.5543 55.2731 94.5599Z" fill="white"/>
<path d="M28.187 26.4795C35.7997 19.3025 45.959 15.4357 56.43 15.7297C66.901 16.0238 76.826 20.4547 84.0217 28.0477C90.9554 35.3608 94.819 45.0442 94.819 55.1096C94.819 65.175 90.9554 74.8585 84.0217 82.1716L28.187 26.4795Z" fill="white"/>
<path d="M26.5249 28.1149L0 1.63536L1.63956 0L28.1869 26.4795C27.6029 26.9948 27.0639 27.5548 26.5249 28.1149Z" fill="white"/>
<path d="M83.9992 82.1492L110.547 108.629L108.907 110.264L82.3596 83.7845C82.9211 83.2693 83.4826 82.7092 83.9992 82.1492Z" fill="white"/>
<path d="M18.7088 26.7707C23.1247 26.7707 26.7044 23.2001 26.7044 18.7955C26.7044 14.3909 23.1247 10.8203 18.7088 10.8203C14.2929 10.8203 10.7131 14.3909 10.7131 18.7955C10.7131 23.2001 14.2929 26.7707 18.7088 26.7707Z" fill="#00FFA3"/>
<path d="M55.4753 94.9184C50.2702 94.9252 45.1148 93.9093 40.3034 91.9287C35.4919 89.948 31.1187 87.0415 27.4335 83.3751C23.7483 79.7086 20.8232 75.354 18.8252 70.5599C16.8272 65.7659 15.7956 60.6262 15.7891 55.4344C15.7779 45.3174 19.6611 35.5822 26.6371 28.238L82.674 84.1317C75.3271 91.0688 65.5919 94.9297 55.4753 94.9184Z" fill="white"/>
<path d="M28.2766 26.5691C44.1781 11.5596 69.2655 12.2765 84.3135 28.1373C91.2692 35.4796 95.1446 45.1983 95.1446 55.3C95.1446 65.4018 91.2692 75.1205 84.3135 82.4628L28.2766 26.5691Z" fill="white"/>
<path d="M26.6372 28.2045L0 1.63536L1.63956 0L28.2767 26.5691C27.7152 27.1068 27.1762 27.6556 26.6372 28.2045Z" fill="white"/>
<path d="M84.3361 82.4629L110.973 109.032L109.334 110.667L82.6741 84.1207C83.2356 83.583 83.7971 83.0229 84.3361 82.4629Z" fill="white"/>
</svg>
